<mxfile host="65bd71144e">
    <diagram id="g05xSOuFwko5-31e51Dw" name="Page-1">
        <mxGraphModel dx="2326" dy="955" grid="0" gridSize="10" guides="1" tooltips="1" connect="1" arrows="1" fold="1" page="1" pageScale="1" pageWidth="1654" pageHeight="2336" background="#ffffff" math="0" shadow="0">
            <root>
                <mxCell id="0"/>
                <mxCell id="1" parent="0"/>
                <mxCell id="2" value="AWS Account with domain example.com" style="points=[[0,0],[0.25,0],[0.5,0],[0.75,0],[1,0],[1,0.25],[1,0.5],[1,0.75],[1,1],[0.75,1],[0.5,1],[0.25,1],[0,1],[0,0.75],[0,0.5],[0,0.25]];outlineConnect=0;gradientColor=none;html=1;whiteSpace=wrap;fontSize=12;fontStyle=0;container=1;pointerEvents=0;collapsible=0;recursiveResize=0;shape=mxgraph.aws4.group;grIcon=mxgraph.aws4.group_account;strokeColor=#CD2264;fillColor=none;verticalAlign=top;align=left;spacingLeft=30;fontColor=#CD2264;dashed=0;" parent="1" vertex="1">
                    <mxGeometry x="-479" y="150" width="1456" height="722" as="geometry"/>
                </mxCell>
                <mxCell id="38" style="edgeStyle=none;html=1;strokeColor=#000000;fontSize=12;fontColor=#000000;" parent="2" source="25" target="36" edge="1">
                    <mxGeometry relative="1" as="geometry"/>
                </mxCell>
                <mxCell id="41" style="edgeStyle=none;html=1;strokeColor=#000000;fontSize=12;fontColor=#000000;" parent="2" source="25" target="55" edge="1">
                    <mxGeometry relative="1" as="geometry">
                        <mxPoint x="608" y="349" as="targetPoint"/>
                    </mxGeometry>
                </mxCell>
                <mxCell id="43" style="edgeStyle=none;html=1;strokeColor=#000000;fontSize=12;fontColor=#000000;" parent="2" source="25" target="40" edge="1">
                    <mxGeometry relative="1" as="geometry"/>
                </mxCell>
                <mxCell id="25" value="Private API GW&lt;div&gt;&lt;span style=&quot;color: rgb(63, 63, 63); font-size: 14px; text-wrap-mode: wrap;&quot;&gt;privateapigwsample.example.com&amp;nbsp;&lt;/span&gt;&lt;/div&gt;" style="sketch=0;points=[[0,0,0],[0.25,0,0],[0.5,0,0],[0.75,0,0],[1,0,0],[0,1,0],[0.25,1,0],[0.5,1,0],[0.75,1,0],[1,1,0],[0,0.25,0],[0,0.5,0],[0,0.75,0],[1,0.25,0],[1,0.5,0],[1,0.75,0]];outlineConnect=0;fontColor=#232F3E;gradientColor=#945DF2;gradientDirection=north;fillColor=#5A30B5;strokeColor=#ffffff;dashed=0;verticalLabelPosition=bottom;verticalAlign=top;align=center;html=1;fontSize=12;fontStyle=0;aspect=fixed;shape=mxgraph.aws4.resourceIcon;resIcon=mxgraph.aws4.api_gateway;" parent="2" vertex="1">
                    <mxGeometry x="496" y="319" width="60" height="60" as="geometry"/>
                </mxCell>
                <mxCell id="34" style="edgeStyle=none;html=1;entryX=0.5;entryY=0;entryDx=0;entryDy=0;entryPerimeter=0;strokeColor=#000000;fontColor=#000000;dashed=1;endArrow=none;endFill=0;exitX=0.5;exitY=1;exitDx=0;exitDy=0;exitPerimeter=0;" parent="2" source="32" target="25" edge="1">
                    <mxGeometry relative="1" as="geometry">
                        <mxPoint x="546.0512820512822" y="115" as="sourcePoint"/>
                    </mxGeometry>
                </mxCell>
                <mxCell id="32" value="Certificate&lt;br&gt;Manager" style="sketch=0;points=[[0,0,0],[0.25,0,0],[0.5,0,0],[0.75,0,0],[1,0,0],[0,1,0],[0.25,1,0],[0.5,1,0],[0.75,1,0],[1,1,0],[0,0.25,0],[0,0.5,0],[0,0.75,0],[1,0.25,0],[1,0.5,0],[1,0.75,0]];outlineConnect=0;fontColor=#232F3E;gradientColor=#F54749;gradientDirection=north;fillColor=#C7131F;strokeColor=#ffffff;dashed=0;verticalLabelPosition=bottom;verticalAlign=top;align=center;html=1;fontSize=12;fontStyle=0;aspect=fixed;shape=mxgraph.aws4.resourceIcon;resIcon=mxgraph.aws4.certificate_manager_3;" parent="2" vertex="1">
                    <mxGeometry x="498" y="57" width="60" height="60" as="geometry"/>
                </mxCell>
                <mxCell id="46" style="edgeStyle=none;html=1;strokeColor=#000000;fontSize=12;fontColor=#000000;" parent="2" source="36" target="55" edge="1">
                    <mxGeometry relative="1" as="geometry">
                        <mxPoint x="836" y="232.020304568528" as="targetPoint"/>
                    </mxGeometry>
                </mxCell>
                <mxCell id="36" value="/http-proxy-integration/{proxy+}" style="html=1;strokeWidth=1;shadow=0;dashed=0;shape=mxgraph.ios7ui.url;fillColor=#e0e0e0;strokeColor=#c0c0c0;buttonText=;strokeColor2=#222222;fontColor=#222222;fontSize=12;spacingTop=2;align=left;" parent="2" vertex="1">
                    <mxGeometry x="583" y="207" width="197" height="31" as="geometry"/>
                </mxCell>
                <mxCell id="49" style="edgeStyle=none;html=1;strokeColor=#000000;fontSize=12;fontColor=#000000;" parent="2" source="40" target="55" edge="1">
                    <mxGeometry relative="1" as="geometry"/>
                </mxCell>
                <mxCell id="40" value="/http-integration/{proxy+}" style="html=1;strokeWidth=1;shadow=0;dashed=0;shape=mxgraph.ios7ui.url;fillColor=#e0e0e0;strokeColor=#c0c0c0;buttonText=;strokeColor2=#222222;fontColor=#222222;fontSize=12;spacingTop=2;align=left;" parent="2" vertex="1">
                    <mxGeometry x="579" y="460" width="174" height="31" as="geometry"/>
                </mxCell>
                <mxCell id="52" value="Generic Proxy&amp;nbsp;&lt;div&gt;Internal NLB&lt;/div&gt;" style="sketch=0;outlineConnect=0;fontColor=#232F3E;gradientColor=none;fillColor=#4D27AA;strokeColor=none;dashed=0;verticalLabelPosition=bottom;verticalAlign=top;align=center;html=1;fontSize=12;fontStyle=0;aspect=fixed;pointerEvents=1;shape=mxgraph.aws4.network_load_balancer;" parent="2" vertex="1">
                    <mxGeometry x="917" y="325" width="60" height="60" as="geometry"/>
                </mxCell>
                <mxCell id="56" style="edgeStyle=none;html=1;strokeColor=#000000;fontSize=12;fontColor=#000000;" parent="2" source="55" target="52" edge="1">
                    <mxGeometry relative="1" as="geometry"/>
                </mxCell>
                <mxCell id="55" value="Generic Proxy Internal&lt;div&gt;&amp;nbsp;VPC Link&lt;/div&gt;" style="aspect=fixed;html=1;points=[];align=center;image;fontSize=12;image=img/lib/azure2/networking/Private_Link.svg;fontColor=#000000;labelBackgroundColor=none;" parent="2" vertex="1">
                    <mxGeometry x="784" y="325" width="58.91" height="54" as="geometry"/>
                </mxCell>
                <mxCell id="18" value="&lt;span style=&quot;color: rgb(35, 47, 62);&quot;&gt;Generic Proxy&amp;nbsp;&lt;/span&gt;&lt;div&gt;Internal VPCE &lt;b&gt;Out&lt;/b&gt;&lt;/div&gt;" style="sketch=0;outlineConnect=0;fontColor=#000000;gradientColor=none;fillColor=#4D27AA;strokeColor=none;dashed=0;verticalLabelPosition=bottom;verticalAlign=top;align=center;html=1;fontSize=12;fontStyle=0;aspect=fixed;pointerEvents=1;shape=mxgraph.aws4.endpoints;" parent="2" vertex="1">
                    <mxGeometry x="1062" y="325" width="60" height="60" as="geometry"/>
                </mxCell>
                <mxCell id="63" style="edgeStyle=none;html=1;strokeColor=#000000;fontSize=12;fontColor=#000000;" parent="2" source="52" target="18" edge="1">
                    <mxGeometry relative="1" as="geometry"/>
                </mxCell>
                <mxCell id="106" value="&lt;span style=&quot;color: rgb(35, 47, 62);&quot;&gt;Generic Proxy&amp;nbsp;&lt;/span&gt;&lt;div&gt;Internal VPCE &lt;b&gt;In&lt;/b&gt;&lt;/div&gt;" style="sketch=0;outlineConnect=0;fontColor=#000000;gradientColor=none;fillColor=#4D27AA;strokeColor=none;dashed=0;verticalLabelPosition=bottom;verticalAlign=top;align=center;html=1;fontSize=12;fontStyle=0;aspect=fixed;pointerEvents=1;shape=mxgraph.aws4.endpoints;" parent="2" vertex="1">
                    <mxGeometry x="207" y="547" width="60" height="60" as="geometry"/>
                </mxCell>
                <mxCell id="107" value="&lt;div&gt;Two certificates defined:&lt;/div&gt;*.example.com (for NLB)&lt;div&gt;privateapigwsample.example.com (for API GW)&lt;/div&gt;" style="shape=note;strokeWidth=2;fontSize=14;size=20;whiteSpace=wrap;html=1;fillColor=#fff2cc;strokeColor=#d6b656;fontColor=#666600;" parent="2" vertex="1">
                    <mxGeometry x="608" y="18" width="324" height="80" as="geometry"/>
                </mxCell>
                <mxCell id="115" style="edgeStyle=none;html=1;" parent="2" source="112" target="113" edge="1">
                    <mxGeometry relative="1" as="geometry"/>
                </mxCell>
                <mxCell id="116" style="edgeStyle=none;html=1;" parent="2" source="112" target="114" edge="1">
                    <mxGeometry relative="1" as="geometry"/>
                </mxCell>
                <mxCell id="112" value="Route 53" style="sketch=0;points=[[0,0,0],[0.25,0,0],[0.5,0,0],[0.75,0,0],[1,0,0],[0,1,0],[0.25,1,0],[0.5,1,0],[0.75,1,0],[1,1,0],[0,0.25,0],[0,0.5,0],[0,0.75,0],[1,0.25,0],[1,0.5,0],[1,0.75,0]];outlineConnect=0;fontColor=#232F3E;fillColor=#8C4FFF;strokeColor=#ffffff;dashed=0;verticalLabelPosition=bottom;verticalAlign=top;align=center;html=1;fontSize=12;fontStyle=0;aspect=fixed;shape=mxgraph.aws4.resourceIcon;resIcon=mxgraph.aws4.route_53;" parent="2" vertex="1">
                    <mxGeometry x="42" y="153" width="78" height="78" as="geometry"/>
                </mxCell>
                <mxCell id="113" value="example.com&amp;nbsp;&lt;div&gt;(public hosted zone)&lt;/div&gt;&lt;div&gt;2 validation records&lt;/div&gt;&lt;div&gt;for certificates&lt;/div&gt;" style="sketch=0;outlineConnect=0;fontColor=#232F3E;gradientColor=none;fillColor=#8C4FFF;strokeColor=none;dashed=0;verticalLabelPosition=bottom;verticalAlign=top;align=center;html=1;fontSize=12;fontStyle=0;aspect=fixed;pointerEvents=1;shape=mxgraph.aws4.hosted_zone;" parent="2" vertex="1">
                    <mxGeometry x="42" y="284" width="78" height="77" as="geometry"/>
                </mxCell>
                <mxCell id="117" style="edgeStyle=none;html=1;" parent="2" source="114" target="106" edge="1">
                    <mxGeometry relative="1" as="geometry"/>
                </mxCell>
                <mxCell id="114" value="example.com&amp;nbsp;&lt;div&gt;(private hosted zone)&lt;/div&gt;&lt;div&gt;&lt;br&gt;&lt;/div&gt;&lt;div&gt;AWS Alias record&amp;nbsp;&lt;/div&gt;&lt;div&gt;&lt;span style=&quot;color: rgb(63, 63, 63); font-size: 14px; text-wrap-mode: wrap; background-color: transparent;&quot;&gt;privateapigwsample.example.com&lt;/span&gt;&amp;nbsp;&lt;/div&gt;&lt;div&gt;to&amp;nbsp;&lt;span style=&quot;background-color: transparent;&quot;&gt;&lt;b&gt;Generic Proxy&amp;nbsp;&lt;/b&gt;&lt;/span&gt;&lt;/div&gt;&lt;div&gt;&lt;b&gt;Internal VPCE&amp;nbsp;In&lt;/b&gt;&lt;/div&gt;&lt;div&gt;&lt;b&gt;&lt;br&gt;&lt;/b&gt;&lt;/div&gt;&lt;div&gt;&lt;div&gt;AWS Alias record&amp;nbsp;&lt;/div&gt;&lt;div&gt;generic-proxy-internal-nlb-name.example.com&lt;/div&gt;&lt;div&gt;to&amp;nbsp;&lt;span style=&quot;background-color: transparent;&quot;&gt;&lt;b&gt;Generic Proxy&amp;nbsp;&lt;/b&gt;&lt;/span&gt;&lt;/div&gt;&lt;div&gt;&lt;span style=&quot;background-color: transparent;&quot;&gt;&lt;b&gt;Internal NLB&lt;/b&gt;&lt;/span&gt;&lt;/div&gt;&lt;/div&gt;" style="sketch=0;outlineConnect=0;fontColor=#232F3E;gradientColor=none;fillColor=#8C4FFF;strokeColor=none;dashed=0;verticalLabelPosition=bottom;verticalAlign=top;align=center;html=1;fontSize=12;fontStyle=0;aspect=fixed;pointerEvents=1;shape=mxgraph.aws4.hosted_zone;" parent="2" vertex="1">
                    <mxGeometry x="198" y="289" width="78" height="77" as="geometry"/>
                </mxCell>
                <mxCell id="118" value="&lt;div&gt;APi GW custom domain (&lt;span style=&quot;color: rgb(63, 63, 63);&quot;&gt;privateapigwsample.example.com&lt;/span&gt;)&lt;/div&gt;&lt;div&gt;&lt;br&gt;&lt;/div&gt;&lt;div&gt;&lt;span style=&quot;color: rgb(63, 63, 63);&quot;&gt;APi GW custom domain association&lt;/span&gt;&lt;/div&gt;&lt;div&gt;&lt;span style=&quot;color: rgb(63, 63, 63);&quot;&gt;&lt;span style=&quot;font-size: 12px; text-wrap-mode: nowrap; color: rgb(35, 47, 62);&quot;&gt;Generic Proxy&amp;nbsp;&lt;/span&gt;&lt;div style=&quot;font-size: 12px; text-wrap-mode: nowrap;&quot;&gt;Internal VPCE In assciated to above defined custom domain&lt;/div&gt;&lt;/span&gt;&lt;/div&gt;&lt;div&gt;&lt;span style=&quot;color: rgb(63, 63, 63);&quot;&gt;&lt;br&gt;&lt;/span&gt;&lt;/div&gt;" style="shape=note;strokeWidth=2;fontSize=14;size=20;whiteSpace=wrap;html=1;fillColor=#fff2cc;strokeColor=#d6b656;fontColor=#666600;" parent="2" vertex="1">
                    <mxGeometry x="319" y="557" width="348" height="142" as="geometry"/>
                </mxCell>
                <mxCell id="120" style="edgeStyle=none;html=1;strokeColor=#000000;fontColor=#000000;dashed=1;endArrow=none;endFill=0;exitX=0.5;exitY=1;exitDx=0;exitDy=0;exitPerimeter=0;" parent="2" source="25" target="118" edge="1">
                    <mxGeometry relative="1" as="geometry">
                        <mxPoint x="532" y="435" as="sourcePoint"/>
                        <mxPoint x="530" y="637" as="targetPoint"/>
                    </mxGeometry>
                </mxCell>
                <mxCell id="121" style="edgeStyle=none;html=1;strokeColor=#000000;fontColor=#000000;dashed=1;endArrow=none;endFill=0;exitX=0;exitY=0.5;exitDx=0;exitDy=0;exitPerimeter=0;entryX=1;entryY=0.25;entryDx=0;entryDy=0;entryPerimeter=0;" parent="2" source="107" target="32" edge="1">
                    <mxGeometry relative="1" as="geometry">
                        <mxPoint x="1058" y="62" as="sourcePoint"/>
                        <mxPoint x="1031" y="240" as="targetPoint"/>
                    </mxGeometry>
                </mxCell>
                <mxCell id="122" style="edgeStyle=none;html=1;strokeColor=#000000;fontColor=#000000;dashed=1;endArrow=none;endFill=0;exitX=0.5;exitY=1;exitDx=0;exitDy=0;exitPerimeter=0;entryX=0.009;entryY=0.57;entryDx=0;entryDy=0;entryPerimeter=0;" parent="2" target="118" edge="1">
                    <mxGeometry relative="1" as="geometry">
                        <mxPoint x="234" y="596" as="sourcePoint"/>
                        <mxPoint x="210" y="774" as="targetPoint"/>
                    </mxGeometry>
                </mxCell>
                <mxCell id="125" style="edgeStyle=none;html=1;" parent="2" source="100" target="109" edge="1">
                    <mxGeometry relative="1" as="geometry"/>
                </mxCell>
                <mxCell id="100" value="API GW&lt;br&gt;Private" style="sketch=0;points=[[0,0,0],[0.25,0,0],[0.5,0,0],[0.75,0,0],[1,0,0],[0,1,0],[0.25,1,0],[0.5,1,0],[0.75,1,0],[1,1,0],[0,0.25,0],[0,0.5,0],[0,0.75,0],[1,0.25,0],[1,0.5,0],[1,0.75,0]];outlineConnect=0;fontColor=#232F3E;gradientColor=#945DF2;gradientDirection=north;fillColor=#5A30B5;strokeColor=#ffffff;dashed=0;verticalLabelPosition=bottom;verticalAlign=top;align=center;html=1;fontSize=12;fontStyle=0;aspect=fixed;shape=mxgraph.aws4.resourceIcon;resIcon=mxgraph.aws4.api_gateway;" parent="2" vertex="1">
                    <mxGeometry x="1229" y="328" width="60" height="60" as="geometry"/>
                </mxCell>
                <mxCell id="109" value="Lambda" style="sketch=0;outlineConnect=0;fontColor=#232F3E;gradientColor=none;fillColor=#ED7100;strokeColor=none;dashed=0;verticalLabelPosition=bottom;verticalAlign=top;align=center;html=1;fontSize=12;fontStyle=0;aspect=fixed;pointerEvents=1;shape=mxgraph.aws4.lambda_function;" parent="2" vertex="1">
                    <mxGeometry x="1378" y="328" width="60" height="60" as="geometry"/>
                </mxCell>
                <mxCell id="124" style="edgeStyle=none;html=1;entryX=0;entryY=0.5;entryDx=0;entryDy=0;entryPerimeter=0;" parent="2" source="18" target="100" edge="1">
                    <mxGeometry relative="1" as="geometry"/>
                </mxCell>
                <mxCell id="126" value="&lt;div&gt;does not work, throws &lt;b&gt;Network error communicating with endpoint&lt;/b&gt;&lt;/div&gt;" style="shape=note;strokeWidth=2;fontSize=14;size=20;whiteSpace=wrap;html=1;fillColor=#fff2cc;strokeColor=#d6b656;fontColor=#666600;" parent="2" vertex="1">
                    <mxGeometry x="804" y="151" width="324" height="80" as="geometry"/>
                </mxCell>
                <mxCell id="127" value="&lt;div&gt;works but we need to remove&amp;nbsp;&lt;b&gt;x-amzn-vpce-config&lt;/b&gt; header in request template&lt;/div&gt;" style="shape=note;strokeWidth=2;fontSize=14;size=20;whiteSpace=wrap;html=1;fillColor=#fff2cc;strokeColor=#d6b656;fontColor=#666600;" parent="2" vertex="1">
                    <mxGeometry x="770" y="460" width="324" height="80" as="geometry"/>
                </mxCell>
            </root>
        </mxGraphModel>
    </diagram>
</mxfile>